Version 1.2
CartesianMesh {
	//              X          Y          Z
	Size           52        136          1
	Extent        1.3 3.3999999999999999          1
	Origin          0          0          0

	VolumeRegionsMapSubvolume {
	3
	//VolRegID   SubvolID     Volume
	         0          0 4.2428148148153486 //chromosome
	         1          2 0.088592592592592653 //void
	         2          2 0.088592592592592653 //void
	}

	MembraneRegionsMapVolumeRegion {
	2
	//MemRegID    VolReg1    VolReg2    Surface
	         0          1          0 0.84339741123541623
	         1          2          0 0.84339741123541623
	}

	VolumeElementsMapVolumeRegion {
	7072 Compressed
	789CEDCDB101000004C030FC7FB40B2C068BA40734020000000000E0B71CDAAA211F1F1F9FEB0F00
	00000000C0770DC32201B1
	}

	MembraneElements {
	72
	//Indx Vol1 Vol2 Conn0 Conn1 Conn2 Conn3 MemRegID
	     0 3224 3172     1    -1    -1    -1        0
	     1 3225 3173     2     0    -1    -1        0
	     2 3226 3174     3     1    -1    -1        0
	     3 3227 3175     4     2    -1    -1        0
	     4 3228 3176     5     3    -1    -1        0
	     5 3229 3177     6     4    -1    -1        0
	     6 3230 3178     7     5    -1    -1        0
	     7 3231 3179     8     6    -1    -1        0
	     8 3232 3180     9     7    -1    -1        0
	     9 3233 3181    10     8    -1    -1        0
	    10 3234 3182    11     9    -1    -1        0
	    11 3235 3183    12    10    -1    -1        0
	    12 3235 3236    13    11    -1    -1        0
	    13 3287 3288    14    12    -1    -1        0
	    14 3339 3340    15    13    -1    -1        0
	    15 3391 3392    16    14    -1    -1        0
	    16 3443 3444    17    15    -1    -1        0
	    17 3495 3496    18    16    -1    -1        0
	    18 3547 3548    19    17    -1    -1        0
	    19 3599 3600    20    18    -1    -1        0
	    20 3651 3652    21    19    -1    -1        0
	    21 3703 3704    22    20    -1    -1        0
	    22 3755 3756    34    21    -1    -1        0
	    23 3796 3848    24    -1    -1    -1        0
	    24 3797 3849    25    23    -1    -1        0
	    25 3798 3850    26    24    -1    -1        0
	    26 3799 3851    27    25    -1    -1        0
	    27 3800 3852    28    26    -1    -1        0
	    28 3801 3853    29    27    -1    -1        0
	    29 3802 3854    30    28    -1    -1        0
	    30 3803 3855    31    29    -1    -1        0
	    31 3804 3856    32    30    -1    -1        0
	    32 3805 3857    33    31    -1    -1        0
	    33 3806 3858    35    32    -1    -1        0
	    34 3807 3808    35    22    -1    -1        0
	    35 3807 3859    34    33    -1    -1        0
	    36 3264 3212    37    48    -1    -1        1
	    37 3265 3213    38    36    -1    -1        1
	    38 3266 3214    39    37    -1    -1        1
	    39 3267 3215    40    38    -1    -1        1
	    40 3268 3216    41    39    -1    -1        1
	    41 3269 3217    42    40    -1    -1        1
	    42 3270 3218    43    41    -1    -1        1
	    43 3271 3219    44    42    -1    -1        1
	    44 3272 3220    45    43    -1    -1        1
	    45 3273 3221    46    44    -1    -1        1
	    46 3274 3222    47    45    -1    -1        1
	    47 3275 3223    -1    46    -1    -1        1
	    48 3264 3263    49    36    -1    -1        1
	    49 3316 3315    50    48    -1    -1        1
	    50 3368 3367    51    49    -1    -1        1
	    51 3420 3419    52    50    -1    -1        1
	    52 3472 3471    53    51    -1    -1        1
	    53 3524 3523    54    52    -1    -1        1
	    54 3576 3575    55    53    -1    -1        1
	    55 3628 3627    56    54    -1    -1        1
	    56 3680 3679    57    55    -1    -1        1
	    57 3732 3731    58    56    -1    -1        1
	    58 3784 3783    59    57    -1    -1        1
	    59 3836 3835    60    58    -1    -1        1
	    60 3836 3888    61    59    -1    -1        1
	    61 3837 3889    62    60    -1    -1        1
	    62 3838 3890    63    61    -1    -1        1
	    63 3839 3891    64    62    -1    -1        1
	    64 3840 3892    65    63    -1    -1        1
	    65 3841 3893    66    64    -1    -1        1
	    66 3842 3894    67    65    -1    -1        1
	    67 3843 3895    68    66    -1    -1        1
	    68 3844 3896    69    67    -1    -1        1
	    69 3845 3897    70    68    -1    -1        1
	    70 3846 3898    71    69    -1    -1        1
	    71 3847 3899    -1    70    -1    -1        1
	}
}
