Version 1.2
CartesianMesh {
	//              X          Y          Z
	Size           52        136          1
	Extent        1.3 3.3999999999999999          1
	Origin          0          0          0

	VolumeRegionsMapSubvolume {
	2
	//VolRegID   SubvolID     Volume
	         0          0 4.4161481481486238 //chromosome
	         1          2 0.0038518518518518515 //void
	}

	MembraneRegionsMapVolumeRegion {
	1
	//MemRegID    VolReg1    VolReg2    Surface
	         0          1          0 0.30945455099847585
	}

	VolumeElementsMapVolumeRegion {
	7072 Compressed
	789CEDCD01010000080220FB7FBA1F0A0748000000000000B69DC7E3F1943E000000000000EB1E85
	3F000D
	}

	MembraneElements {
	14
	//Indx Vol1 Vol2 Conn0 Conn1 Conn2 Conn3 MemRegID
	     0 3224 3172     1    -1    -1    -1        0
	     1 3224 3225     2     0    -1    -1        0
	     2 3276 3277     3     1    -1    -1        0
	     3 3328 3329     4     2    -1    -1        0
	     4 3380 3381     5     3    -1    -1        0
	     5 3432 3433     6     4    -1    -1        0
	     6 3484 3485     7     5    -1    -1        0
	     7 3536 3537     8     6    -1    -1        0
	     8 3588 3589     9     7    -1    -1        0
	     9 3640 3641    10     8    -1    -1        0
	    10 3692 3693    11     9    -1    -1        0
	    11 3744 3745    12    10    -1    -1        0
	    12 3796 3797    13    11    -1    -1        0
	    13 3796 3848    12    -1    -1    -1        0
	}
}
