Version 1.2
CartesianMesh {
	//              X          Y          Z
	Size           52         72          1
	Extent        1.3          1          1
	Origin          0          0          0

	VolumeRegionsMapSubvolume {
	3
	//VolRegID   SubvolID     Volume
	         0          0 1.1554957194145652 //chromosome
	         1          2 0.072252140292737022 //void
	         2          2 0.072252140292737022 //void
	}

	MembraneRegionsMapVolumeRegion {
	2
	//MemRegID    VolReg1    VolReg2    Surface
	         0          1          0 0.5263171122534458
	         1          2          0 0.5263171122534458
	}

	VolumeElementsMapVolumeRegion {
	3744 Compressed
	789CEDCD3111000008C430C0BF6814FCC2C82515D02A00000000003EE8D0D5847C7C7C7C7C7C3E7F
	163FCF0289
	}

	MembraneElements {
	60
	//Indx Vol1 Vol2 Conn0 Conn1 Conn2 Conn3 MemRegID
	     0 2808 2756     1    -1    -1    -1        0
	     1 2809 2757     2     0    -1    -1        0
	     2 2810 2758     3     1    -1    -1        0
	     3 2811 2759     4     2    -1    -1        0
	     4 2812 2760     5     3    -1    -1        0
	     5 2813 2761     6     4    -1    -1        0
	     6 2814 2762     7     5    -1    -1        0
	     7 2815 2763     8     6    -1    -1        0
	     8 2816 2764     9     7    -1    -1        0
	     9 2817 2765    10     8    -1    -1        0
	    10 2818 2766    11     9    -1    -1        0
	    11 2819 2767    12    10    -1    -1        0
	    12 2819 2820    13    11    -1    -1        0
	    13 2871 2872    14    12    -1    -1        0
	    14 2923 2924    15    13    -1    -1        0
	    15 2975 2976    16    14    -1    -1        0
	    16 3027 3028    17    15    -1    -1        0
	    17 3079 3080    18    16    -1    -1        0
	    18 3131 3132    19    17    -1    -1        0
	    19 3183 3184    20    18    -1    -1        0
	    20 3235 3236    21    19    -1    -1        0
	    21 3287 3288    22    20    -1    -1        0
	    22 3339 3340    23    21    -1    -1        0
	    23 3391 3392    24    22    -1    -1        0
	    24 3443 3444    25    23    -1    -1        0
	    25 3495 3496    26    24    -1    -1        0
	    26 3547 3548    27    25    -1    -1        0
	    27 3599 3600    28    26    -1    -1        0
	    28 3651 3652    29    27    -1    -1        0
	    29 3703 3704    -1    28    -1    -1        0
	    30 2848 2796    31    42    -1    -1        1
	    31 2849 2797    32    30    -1    -1        1
	    32 2850 2798    33    31    -1    -1        1
	    33 2851 2799    34    32    -1    -1        1
	    34 2852 2800    35    33    -1    -1        1
	    35 2853 2801    36    34    -1    -1        1
	    36 2854 2802    37    35    -1    -1        1
	    37 2855 2803    38    36    -1    -1        1
	    38 2856 2804    39    37    -1    -1        1
	    39 2857 2805    40    38    -1    -1        1
	    40 2858 2806    41    39    -1    -1        1
	    41 2859 2807    -1    40    -1    -1        1
	    42 2848 2847    43    30    -1    -1        1
	    43 2900 2899    44    42    -1    -1        1
	    44 2952 2951    45    43    -1    -1        1
	    45 3004 3003    46    44    -1    -1        1
	    46 3056 3055    47    45    -1    -1        1
	    47 3108 3107    48    46    -1    -1        1
	    48 3160 3159    49    47    -1    -1        1
	    49 3212 3211    50    48    -1    -1        1
	    50 3264 3263    51    49    -1    -1        1
	    51 3316 3315    52    50    -1    -1        1
	    52 3368 3367    53    51    -1    -1        1
	    53 3420 3419    54    52    -1    -1        1
	    54 3472 3471    55    53    -1    -1        1
	    55 3524 3523    56    54    -1    -1        1
	    56 3576 3575    57    55    -1    -1        1
	    57 3628 3627    58    56    -1    -1        1
	    58 3680 3679    59    57    -1    -1        1
	    59 3732 3731    -1    58    -1    -1        1
	}
}
