Version 1.2
CartesianMesh {
	//              X          Y          Z
	Size           20         20         20
	Extent         10         10         10
	Origin          0          0          0

	VolumeRegionsMapSubvolume {
	2
	//VolRegID   SubvolID     Volume
	         0          0 729.40661904061847 //subdomain0
	         1          1 270.59338095933259 //subdomain1
	}

	MembraneRegionsMapVolumeRegion {
	1
	//MemRegID    VolReg1    VolReg2    Surface
	         0          1          0 200.13734883599099
	}

	VolumeElementsMapVolumeRegion {
	8000 Compressed
	789CED99410EC3200C04C3FF3FDD1E2A3542846C1CC00666B8CE05EF5A6993E3000000807948DFD3
	D203684FFA1DCDAA9B293BD13CF51E671356A4659F73EBCA5CC5EBB36F3082F1BD2F592573158F3D
	8A8932BDB8BDBFB272D3CB9B658FF85D5746999E3D357B0FBCFAECE5F9EE11CF9932DAF4EC69E82D
	88D2D3E89EFF73661DEE6F6A9B9E9E869E6EDF5ED5ACB3A97A7BEFC7BD3107DA4D9F4F4F4F434FB7
	6FAF6AD6D9543DF6630F6CD3D3D3D0D3EDDDAB55BC08FBB113CA54EC6994CC772D88D2D3D61EFFCF
	A3A24C459BB23D357B0FBCFAAC7ABCDFDD036DCAB6D4F416BCE955748FEF833B307E8FD6F1E83DFC
	D1D26DB96F7EDE933ED37AF0456D1F2D050000988D0FE2FE0741
	}

	MembraneElements {
	1080
	//Indx Vol1 Vol2 Conn0 Conn1 Conn2 Conn3 MemRegID
	     0  989  589     2    26    17     1        0
	     1  990  590     3     0    19    28        0
	     2 1009  609    36    34     0     3        0
	     3 1010  610    38     2     1    37        0
	     4 1328  928     9    71    61     5        0
	     5 1329  929    10     4    63     6        0
	     6 1330  930    11     5    65     7        0
	     7 1331  931    12     6    67    74        0
	     8 1347  947    15    79    72     9        0
	     9 1348  948    16     8     4    10        0
	    10 1349  949    18     9     5    11        0
	    11 1350  950    20    10     6    12        0
	    12 1351  951    21    11     7    13        0
	    13 1352  952    22    12    75    82        0
	    14 1366  966    24    86    80    15        0
	    15 1367  967    25    14     8    16        0
	    16 1368  968    27    15     9    18        0
	    17  989  969    19     0    26    18        0
	    18 1369  969    17    16    10    20        0
	    19  990  970    28     1    17    20        0
	    20 1370  970    19    18    11    21        0
	    21 1371  971    29    20    12    22        0
	    22 1372  972    30    21    13    23        0
	    23 1373  973    31    22    83    88        0
	    24 1386  986    32    90    14    25        0
	    25 1387  987    33    24    15    27        0
	    26  989  988    34     0    17    27        0
	    27 1388  988    35    25    16    26        0
	    28  990  991    37     1    19    29        0
	    29 1391  991    39    28    21    30        0
	    30 1392  992    40    29    22    31        0
	    31 1393  993    41    30    23    92        0
	    32 1406 1006    42    94    24    33        0
	    33 1407 1007    43    32    25    35        0
	    34 1009 1008    36     2    26    35        0
	    35 1408 1008    44    33    27    34        0
	    36 1009 1029    38     2    34    45        0
	    37 1010 1011    38     3    28    39        0
	    38 1010 1030    37     3    36    46        0
	    39 1411 1011    47    37    29    40        0
	    40 1412 1012    48    39    30    41        0
	    41 1413 1013    49    40    31    96        0
	    42 1426 1026   100    98    32    43        0
	    43 1427 1027    50    42    33    44        0
	    44 1428 1028    51    43    35    45        0
	    45 1429 1029    52    44    36    46        0
	    46 1430 1030    53    45    38    47        0
	    47 1431 1031    54    46    39    48        0
	    48 1432 1032    55    47    40    49        0
	    49 1433 1033   102    48    41   101        0
	    50 1447 1047   107   105    43    51        0
	    51 1448 1048    56    50    44    52        0
	    52 1449 1049    57    51    45    53        0
	    53 1450 1050    58    52    46    54        0
	    54 1451 1051    59    53    47    55        0
	    55 1452 1052   109    54    48   108        0
	    56 1468 1068   115   113    51    57        0
	    57 1469 1069   116    56    52    58        0
	    58 1470 1070   117    57    53    59        0
	    59 1471 1071   119    58    54   118        0
	    60 1707 1307    73   140   128    62        0
	    61 1328 1308    63     4    71    62        0
	    62 1708 1308    61    60   130    64        0
	    63 1329 1309    65     5    61    64        0
	    64 1709 1309    63    62   132    66        0
	    65 1330 1310    67     6    63    66        0
	    66 1710 1310    65    64   134    68        0
	    67 1331 1311    74     7    65    68        0
	    68 1711 1311    67    66   136    69        0
	    69 1712 1312    76    68   138   143        0
	    70 1726 1326    81   146   141    73        0
	    71 1328 1327    72     4    61    73        0
	    72 1347 1327    71     8    79    73        0
	    73 1727 1327    72    70    60    71        0
	    74 1331 1332    75     7    67    76        0
	    75 1352 1332    82    13    74    76        0
	    76 1732 1332    75    74    69    77        0
	    77 1733 1333    84    76   144   149        0
	    78 1745 1345    87   152   147    81        0
	    79 1347 1346    80     8    72    81        0
	    80 1366 1346    79    14    86    81        0
	    81 1746 1346    80    78    70    79        0
	    82 1352 1353    83    13    75    84        0
	    83 1373 1353    88    23    82    84        0
	    84 1753 1353    83    82    77    85        0
	    85 1754 1354    89    84   150   154        0
	    86 1366 1365    90    14    80    87        0
	    87 1765 1365    91   156    78    86        0
	    88 1373 1374    92    23    83    89        0
	    89 1774 1374    93    88    85   158        0
	    90 1386 1385    94    24    86    91        0
	    91 1785 1385    95   160    87    90        0
	    92 1393 1394    96    31    88    93        0
	    93 1794 1394    97    92    89   162        0
	    94 1406 1405    98    32    90    95        0
	    95 1805 1405    99   164    91    94        0
	    96 1413 1414   101    41    92    97        0
	    97 1814 1414   103    96    93   166        0
	    98 1426 1425   100    42    94    99        0
	    99 1825 1425   104   168    95    98        0
	   100 1426 1446   105    42    98   106        0
	   101 1433 1434   102    49    96   103        0
	   102 1433 1453   101    49   108   110        0
	   103 1834 1434   111   101    97   170        0
	   104 1845 1445   174   172    99   106        0
	   105 1447 1446   107    50   100   106        0
	   106 1846 1446   112   104   100   105        0
	   107 1447 1467   113    50   105   114        0
	   108 1452 1453   109    55   102   110        0
	   109 1452 1472   108    55   118   120        0
	   110 1853 1453   121   108   102   111        0
	   111 1854 1454   176   110   103   175        0
	   112 1866 1466   180   178   106   114        0
	   113 1468 1467   115    56   107   114        0
	   114 1867 1467   122   112   107   113        0
	   115 1468 1488   116    56   113   123        0
	   116 1469 1489   117    57   115   124        0
	   117 1470 1490   119    58   116   125        0
	   118 1471 1472   119    59   109   120        0
	   119 1471 1491   118    59   117   126        0
	   120 1872 1472   127   118   109   121        0
	   121 1873 1473   182   120   110   181        0
	   122 1887 1487   186   184   114   123        0
	   123 1888 1488   187   122   115   124        0
	   124 1889 1489   188   123   116   125        0
	   125 1890 1490   189   124   117   126        0
	   126 1891 1491   190   125   119   127        0
	   127 1892 1492   192   126   120   191        0
	   128 1707 1687   130    60   140   129        0
	   129 2087 1687   128   210   200   131        0
	   130 1708 1688   132    62   128   131        0
	   131 2088 1688   130   129   201   133        0
	   132 1709 1689   134    64   130   133        0
	   133 2089 1689   132   131   203   135        0
	   134 1710 1690   136    66   132   135        0
	   135 2090 1690   134   133   205   137        0
	   136 1711 1691   138    68   134   137        0
	   137 2091 1691   136   135   207   139        0
	   138 1712 1692   143    69   136   139        0
	   139 2092 1692   138   137   209   213        0
	   140 1707 1706   141    60   128   142        0
	   141 1726 1706   140    70   146   142        0
	   142 2106 1706   141   216   211   140        0
	   143 1712 1713   144    69   138   145        0
	   144 1733 1713   149    77   143   145        0
	   145 2113 1713   144   143   214   219        0
	   146 1726 1725   147    70   141   148        0
	   147 1745 1725   146    78   152   148        0
	   148 2125 1725   147   222   217   146        0
	   149 1733 1734   150    77   144   151        0
	   150 1754 1734   154    85   149   151        0
	   151 2134 1734   150   149   220   225        0
	   152 1745 1744   156    78   147   153        0
	   153 2144 1744   157   228   223   152        0
	   154 1754 1755   158    85   150   155        0
	   155 2155 1755   159   154   226   229        0
	   156 1765 1764   160    87   152   157        0
	   157 2164 1764   161   230   153   156        0
	   158 1774 1775   162    89   154   159        0
	   159 2175 1775   163   158   155   232        0
	   160 1785 1784   164    91   156   161        0
	   161 2184 1784   165   234   157   160        0
	   162 1794 1795   166    93   158   163        0
	   163 2195 1795   167   162   159   236        0
	   164 1805 1804   168    95   160   165        0
	   165 2204 1804   169   238   161   164        0
	   166 1814 1815   170    97   162   167        0
	   167 2215 1815   171   166   163   240        0
	   168 1825 1824   172    99   164   169        0
	   169 2224 1824   173   242   165   168        0
	   170 1834 1835   175   103   166   171        0
	   171 2235 1835   177   170   167   244        0
	   172 1845 1844   174   104   168   173        0
	   173 2244 1844   247   246   169   172        0
	   174 1845 1865   178   104   172   179        0
	   175 1854 1855   176   111   170   177        0
	   176 1854 1874   175   111   181   183        0
	   177 2255 1855   249   175   171   248        0
	   178 1866 1865   180   112   174   179        0
	   179 2265 1865   252   250   174   178        0
	   180 1866 1886   184   112   178   185        0
	   181 1873 1874   182   121   176   183        0
	   182 1873 1893   181   121   191   193        0
	   183 2274 1874   254   181   176   253        0
	   184 1887 1886   186   122   180   185        0
	   185 2286 1886   258   256   180   184        0
	   186 1887 1907   187   122   184   194        0
	   187 1888 1908   188   123   186   195        0
	   188 1889 1909   189   124   187   196        0
	   189 1890 1910   190   125   188   197        0
	   190 1891 1911   192   126   189   198        0
	   191 1892 1893   192   127   182   193        0
	   192 1892 1912   191   127   190   199        0
	   193 2293 1893   260   191   182   259        0
	   194 2307 1907   264   262   186   195        0
	   195 2308 1908   265   194   187   196        0
	   196 2309 1909   266   195   188   197        0
	   197 2310 1910   267   196   189   198        0
	   198 2311 1911   268   197   190   199        0
	   199 2312 1912   270   198   192   269        0
	   200 2087 2067   201   129   210   282        0
	   201 2088 2068   203   131   200   202        0
	   202 2468 2068   201   281   276   204        0
	   203 2089 2069   205   133   201   204        0
	   204 2469 2069   203   202   277   206        0
	   205 2090 2070   207   135   203   206        0
	   206 2470 2070   205   204   278   208        0
	   207 2091 2071   209   137   205   208        0
	   208 2471 2071   207   206   279   284        0
	   209 2092 2072   213   139   207   285        0
	   210 2087 2086   211   129   200   212        0
	   211 2106 2086   210   142   216   212        0
	   212 2486 2086   211   288   280   210        0
	   213 2092 2093   214   139   209   215        0
	   214 2113 2093   219   145   213   215        0
	   215 2493 2093   214   213   287   291        0
	   216 2106 2105   217   142   211   218        0
	   217 2125 2105   216   148   222   218        0
	   218 2505 2105   217   294   289   216        0
	   219 2113 2114   220   145   214   221        0
	   220 2134 2114   225   151   219   221        0
	   221 2514 2114   220   219   292   297        0
	   222 2125 2124   223   148   217   224        0
	   223 2144 2124   222   153   228   224        0
	   224 2524 2124   223   300   295   222        0
	   225 2134 2135   226   151   220   227        0
	   226 2155 2135   229   155   225   227        0
	   227 2535 2135   226   225   298   301        0
	   228 2144 2143   230   153   223   302        0
	   229 2155 2156   232   155   226   305        0
	   230 2164 2163   234   157   228   231        0
	   231 2563 2163   235   308   303   230        0
	   232 2175 2176   236   159   229   233        0
	   233 2576 2176   237   232   306   309        0
	   234 2184 2183   238   161   230   235        0
	   235 2583 2183   239   310   231   234        0
	   236 2195 2196   240   163   232   237        0
	   237 2596 2196   241   236   233   311        0
	   238 2204 2203   242   165   234   239        0
	   239 2603 2203   243   312   235   238        0
	   240 2215 2216   244   167   236   241        0
	   241 2616 2216   245   240   237   313        0
	   242 2224 2223   246   169   238   243        0
	   243 2623 2223   315   314   239   242        0
	   244 2235 2236   248   171   240   245        0
	   245 2636 2236   317   244   241   316        0
	   246 2244 2243   247   173   242   318        0
	   247 2244 2264   250   173   246   251        0
	   248 2255 2256   249   177   244   320        0
	   249 2255 2275   248   177   253   255        0
	   250 2265 2264   252   179   247   251        0
	   251 2664 2264   323   322   247   250        0
	   252 2265 2285   256   179   250   257        0
	   253 2274 2275   254   183   249   255        0
	   254 2274 2294   253   183   259   261        0
	   255 2675 2275   325   253   249   324        0
	   256 2286 2285   258   185   252   257        0
	   257 2685 2285   328   326   252   256        0
	   258 2286 2306   262   185   256   263        0
	   259 2293 2294   260   193   254   261        0
	   260 2293 2313   259   193   269   271        0
	   261 2694 2294   330   259   254   329        0
	   262 2307 2306   264   194   258   263        0
	   263 2706 2306   334   332   258   262        0
	   264 2307 2327   265   194   262   335        0
	   265 2308 2328   266   195   264   272        0
	   266 2309 2329   267   196   265   273        0
	   267 2310 2330   268   197   266   274        0
	   268 2311 2331   270   198   267   275        0
	   269 2312 2313   270   199   260   271        0
	   270 2312 2332   269   199   268   336        0
	   271 2713 2313   338   269   260   337        0
	   272 2728 2328   342   340   265   273        0
	   273 2729 2329   343   272   266   274        0
	   274 2730 2330   344   273   267   275        0
	   275 2731 2331   346   274   268   345        0
	   276 2468 2448   277   202   281   349        0
	   277 2469 2449   278   204   276   350        0
	   278 2470 2450   279   206   277   351        0
	   279 2471 2451   284   208   278   352        0
	   280 2486 2466   282   212   288   356        0
	   281 2468 2467   282   202   276   283        0
	   282 2487 2467   281   200   280   283        0
	   283 2867 2467   282   355   348   281        0
	   284 2471 2472   285   208   279   286        0
	   285 2492 2472   287   209   284   286        0
	   286 2872 2472   285   284   353   358        0
	   287 2493 2473   291   215   285   359        0
	   288 2486 2485   289   212   280   290        0
	   289 2505 2485   288   218   294   290        0
	   290 2885 2485   289   362   354   288        0
	   291 2493 2494   292   215   287   293        0
	   292 2514 2494   297   221   291   293        0
	   293 2894 2494   292   291   361   364        0
	   294 2505 2504   295   218   289   296        0
	   295 2524 2504   294   224   300   296        0
	   296 2904 2504   295   366   363   294        0
	   297 2514 2515   298   221   292   299        0
	   298 2535 2515   301   227   297   299        0
	   299 2915 2515   298   297   365   367        0
	   300 2524 2523   302   224   295   368        0
	   301 2535 2536   305   227   298   371        0
	   302 2544 2543   303   228   300   304        0
	   303 2563 2543   302   231   308   304        0
	   304 2943 2543   303   374   369   302        0
	   305 2555 2556   306   229   301   307        0
	   306 2576 2556   309   233   305   307        0
	   307 2956 2556   306   305   372   375        0
	   308 2563 2562   310   231   303   376        0
	   309 2576 2577   311   233   306   377        0
	   310 2583 2582   312   235   308   378        0
	   311 2596 2597   313   237   309   379        0
	   312 2603 2602   314   239   310   380        0
	   313 2616 2617   316   241   311   381        0
	   314 2623 2622   315   243   312   382        0
	   315 2623 2643   318   243   314   319        0
	   316 2636 2637   317   245   313   383        0
	   317 2636 2656   316   245   320   321        0
	   318 2644 2643   322   246   315   319        0
	   319 3043 2643   385   384   315   318        0
	   320 2655 2656   324   248   317   321        0
	   321 3056 2656   387   320   317   386        0
	   322 2664 2663   323   251   318   388        0
	   323 2664 2684   326   251   322   327        0
	   324 2675 2676   325   255   320   390        0
	   325 2675 2695   324   255   329   331        0
	   326 2685 2684   328   257   323   327        0
	   327 3084 2684   393   392   323   326        0
	   328 2685 2705   332   257   326   333        0
	   329 2694 2695   330   261   325   331        0
	   330 2694 2714   329   261   337   339        0
	   331 3095 2695   395   329   325   394        0
	   332 2706 2705   334   263   328   333        0
	   333 3105 2705   397   396   328   332        0
	   334 2706 2726   335   263   332   398        0
	   335 2707 2727   340   264   334   341        0
	   336 2712 2732   338   270   345   347        0
	   337 2713 2714   338   271   330   339        0
	   338 2713 2733   337   271   336   399        0
	   339 3114 2714   401   337   330   400        0
	   340 2728 2727   342   272   335   341        0
	   341 3127 2727   404   402   335   340        0
	   342 2728 2748   343   272   340   405        0
	   343 2729 2749   344   273   342   406        0
	   344 2730 2750   346   274   343   407        0
	   345 2731 2732   346   275   336   347        0
	   346 2731 2751   345   275   344   408        0
	   347 3132 2732   410   345   336   409        0
	   348 2867 2847   349   283   355   413        0
	   349 2868 2848   350   276   348   414        0
	   350 2869 2849   351   277   349   415        0
	   351 2870 2850   352   278   350   417        0
	   352 2871 2851   353   279   351   419        0
	   353 2872 2852   358   286   352   420        0
	   354 2885 2865   356   290   362   423        0
	   355 2867 2866   356   283   348   357        0
	   356 2886 2866   355   280   354   357        0
	   357 3266 2866   356   422   412   355        0
	   358 2872 2873   359   286   353   360        0
	   359 2893 2873   361   287   358   360        0
	   360 3273 2873   359   358   421   424        0
	   361 2894 2874   364   293   359   425        0
	   362 2885 2884   363   290   354   426        0
	   363 2904 2884   362   296   366   427        0
	   364 2894 2895   365   293   361   428        0
	   365 2915 2895   367   299   364   429        0
	   366 2904 2903   368   296   363   430        0
	   367 2915 2916   371   299   365   432        0
	   368 2924 2923   369   300   366   370        0
	   369 2943 2923   368   304   374   370        0
	   370 3323 2923   369   434   431   368        0
	   371 2935 2936   372   301   367   373        0
	   372 2956 2936   375   307   371   373        0
	   373 3336 2936   372   371   433   435        0
	   374 2943 2942   376   304   369   436        0
	   375 2956 2957   377   307   372   437        0
	   376 2963 2962   378   308   374   438        0
	   377 2976 2977   379   309   375   439        0
	   378 2983 2982   380   310   376   440        0
	   379 2996 2997   381   311   377   442        0
	   380 3003 3002   382   312   378   444        0
	   381 3016 3017   383   313   379   446        0
	   382 3023 3022   384   314   380   448        0
	   383 3036 3037   386   316   381   449        0
	   384 3043 3042   385   319   382   450        0
	   385 3043 3063   388   319   384   389        0
	   386 3056 3057   387   321   383   451        0
	   387 3056 3076   386   321   390   391        0
	   388 3064 3063   392   322   385   389        0
	   389 3463 3063   453   452   385   388        0
	   390 3075 3076   394   324   387   391        0
	   391 3476 3076   455   390   387   454        0
	   392 3084 3083   393   327   388   456        0
	   393 3084 3104   396   327   392   457        0
	   394 3095 3096   395   331   390   458        0
	   395 3095 3115   394   331   400   459        0
	   396 3105 3104   397   333   393   460        0
	   397 3105 3125   398   333   396   461        0
	   398 3106 3126   402   334   397   403        0
	   399 3113 3133   401   338   409   411        0
	   400 3114 3115   401   339   395   462        0
	   401 3114 3134   400   339   399   463        0
	   402 3127 3126   404   341   398   403        0
	   403 3526 3126   465   464   398   402        0
	   404 3127 3147   405   341   402   466        0
	   405 3128 3148   406   342   404   467        0
	   406 3129 3149   407   343   405   468        0
	   407 3130 3150   408   344   406   469        0
	   408 3131 3151   410   346   407   470        0
	   409 3132 3133   410   347   399   411        0
	   410 3132 3152   409   347   408   471        0
	   411 3533 3133   473   409   399   472        0
	   412 3266 3246   413   357   422   478        0
	   413 3267 3247   414   348   412   479        0
	   414 3268 3248   415   349   413   481        0
	   415 3269 3249   417   350   414   416        0
	   416 3649 3249   415   480   476   418        0
	   417 3270 3250   419   351   415   418        0
	   418 3650 3250   417   416   477   482        0
	   419 3271 3251   420   352   417   483        0
	   420 3272 3252   421   353   419   484        0
	   421 3273 3253   424   360   420   485        0
	   422 3266 3265   423   357   412   486        0
	   423 3285 3265   422   354   426   487        0
	   424 3273 3274   425   360   421   488        0
	   425 3294 3274   428   361   424   489        0
	   426 3285 3284   427   362   423   490        0
	   427 3304 3284   426   363   430   491        0
	   428 3294 3295   429   364   425   492        0
	   429 3315 3295   432   365   428   493        0
	   430 3304 3303   431   366   427   494        0
	   431 3323 3303   430   370   434   495        0
	   432 3315 3316   433   367   429   496        0
	   433 3336 3316   435   373   432   497        0
	   434 3323 3322   436   370   431   498        0
	   435 3336 3337   437   373   433   499        0
	   436 3343 3342   438   374   434   500        0
	   437 3356 3357   439   375   435   501        0
	   438 3363 3362   440   376   436   502        0
	   439 3376 3377   442   377   437   504        0
	   440 3383 3382   444   378   438   441        0
	   441 3782 3382   445   506   503   440        0
	   442 3396 3397   446   379   439   443        0
	   443 3797 3397   447   442   505   507        0
	   444 3403 3402   448   380   440   445        0
	   445 3802 3402   509   508   441   444        0
	   446 3416 3417   449   381   442   447        0
	   447 3817 3417   511   446   443   510        0
	   448 3423 3422   450   382   444   512        0
	   449 3436 3437   451   383   446   513        0
	   450 3443 3442   452   384   448   514        0
	   451 3456 3457   454   386   449   515        0
	   452 3463 3462   453   389   450   516        0
	   453 3463 3483   456   389   452   517        0
	   454 3476 3477   455   391   451   518        0
	   455 3476 3496   454   391   458   519        0
	   456 3484 3483   457   392   453   520        0
	   457 3484 3504   460   393   456   521        0
	   458 3495 3496   459   394   455   522        0
	   459 3495 3515   458   395   462   523        0
	   460 3505 3504   461   396   457   524        0
	   461 3505 3525   464   397   460   525        0
	   462 3514 3515   463   400   459   526        0
	   463 3514 3534   462   401   472   527        0
	   464 3526 3525   465   403   461   528        0
	   465 3526 3546   466   403   464   529        0
	   466 3527 3547   467   404   465   530        0
	   467 3528 3548   468   405   466   531        0
	   468 3529 3549   469   406   467   474        0
	   469 3530 3550   470   407   468   475        0
	   470 3531 3551   471   408   469   532        0
	   471 3532 3552   473   410   470   533        0
	   472 3533 3534   473   411   463   534        0
	   473 3533 3553   472   411   471   535        0
	   474 3949 3549   537   536   468   475        0
	   475 3950 3550   539   474   469   538        0
	   476 3649 3629   477   416   480   540        0
	   477 3650 3630   482   418   476   541        0
	   478 3666 3646   479   412   486   542        0
	   479 3667 3647   481   413   478   543        0
	   480 3649 3648   481   416   476   544        0
	   481 3668 3648   480   414   479   545        0
	   482 3650 3651   483   418   477   547        0
	   483 3671 3651   484   419   482   549        0
	   484 3672 3652   485   420   483   550        0
	   485 3673 3653   488   421   484   551        0
	   486 3666 3665   487   422   478   552        0
	   487 3685 3665   486   423   490   553        0
	   488 3673 3674   489   424   485   554        0
	   489 3694 3674   492   425   488   555        0
	   490 3685 3684   491   426   487   556        0
	   491 3704 3684   490   427   494   557        0
	   492 3694 3695   493   428   489   558        0
	   493 3715 3695   496   429   492   559        0
	   494 3704 3703   495   430   491   560        0
	   495 3723 3703   494   431   498   561        0
	   496 3715 3716   497   432   493   562        0
	   497 3736 3716   499   433   496   563        0
	   498 3723 3722   500   434   495   564        0
	   499 3736 3737   501   435   497   565        0
	   500 3743 3742   502   436   498   566        0
	   501 3756 3757   504   437   499   567        0
	   502 3763 3762   503   438   500   568        0
	   503 3782 3762   502   441   506   569        0
	   504 3776 3777   505   439   501   570        0
	   505 3797 3777   507   443   504   571        0
	   506 3782 3781   508   441   503   572        0
	   507 3797 3798   510   443   505   574        0
	   508 3802 3801   509   445   506   576        0
	   509 3802 3822   512   445   508   577        0
	   510 3817 3818   511   447   507   579        0
	   511 3817 3837   510   447   513   580        0
	   512 3823 3822   514   448   509   582        0
	   513 3836 3837   515   449   511   583        0
	   514 3843 3842   516   450   512   584        0
	   515 3856 3857   518   451   513   585        0
	   516 3863 3862   517   452   514   586        0
	   517 3863 3883   520   453   516   587        0
	   518 3876 3877   519   454   515   588        0
	   519 3876 3896   518   455   522   589        0
	   520 3884 3883   521   456   517   590        0
	   521 3884 3904   524   457   520   591        0
	   522 3895 3896   523   458   519   592        0
	   523 3895 3915   522   459   526   593        0
	   524 3905 3904   525   460   521   594        0
	   525 3905 3925   528   461   524   595        0
	   526 3914 3915   527   462   523   596        0
	   527 3914 3934   526   463   534   597        0
	   528 3926 3925   529   464   525   598        0
	   529 3926 3946   530   465   528   599        0
	   530 3927 3947   531   466   529   600        0
	   531 3928 3948   536   467   530   601        0
	   532 3931 3951   533   470   538   602        0
	   533 3932 3952   535   471   532   603        0
	   534 3933 3934   535   472   527   604        0
	   535 3933 3953   534   473   533   605        0
	   536 3949 3948   537   474   531   606        0
	   537 3949 3969   539   474   536   607        0
	   538 3950 3951   539   475   532   609        0
	   539 3950 3970   538   475   537   610        0
	   540 4049 4029   541   476   544   546        0
	   541 4050 4030   547   477   540   548        0
	   542 4066 4046   543   478   552   612        0
	   543 4067 4047   545   479   542   613        0
	   544 4049 4048   545   480   540   546        0
	   545 4068 4048   544   481   543   614        0
	   546 4049 4449   615   544   540   548        0
	   547 4050 4051   549   482   541   548        0
	   548 4050 4450   616   546   541   547        0
	   549 4071 4051   550   483   547   617        0
	   550 4072 4052   551   484   549   618        0
	   551 4073 4053   554   485   550   619        0
	   552 4066 4065   553   486   542   620        0
	   553 4085 4065   552   487   556   621        0
	   554 4073 4074   555   488   551   623        0
	   555 4094 4074   558   489   554   625        0
	   556 4085 4084   557   490   553   626        0
	   557 4104 4084   556   491   560   627        0
	   558 4094 4095   559   492   555   628        0
	   559 4115 4095   562   493   558   629        0
	   560 4104 4103   561   494   557   630        0
	   561 4123 4103   560   495   564   631        0
	   562 4115 4116   563   496   559   632        0
	   563 4136 4116   565   497   562   633        0
	   564 4123 4122   566   498   561   634        0
	   565 4136 4137   567   499   563   636        0
	   566 4143 4142   568   500   564   638        0
	   567 4156 4157   570   501   565   639        0
	   568 4163 4162   569   502   566   640        0
	   569 4182 4162   568   503   572   573        0
	   570 4176 4177   571   504   567   641        0
	   571 4197 4177   574   505   570   575        0
	   572 4182 4181   576   506   569   573        0
	   573 4182 4582   578   572   569   642        0
	   574 4197 4198   579   507   571   575        0
	   575 4197 4597   581   643   571   574        0
	   576 4202 4201   577   508   572   578        0
	   577 4202 4222   582   509   576   578        0
	   578 4202 4602   577   576   573   644        0
	   579 4217 4218   580   510   574   581        0
	   580 4217 4237   579   511   583   581        0
	   581 4217 4617   580   645   575   579        0
	   582 4223 4222   584   512   577   646        0
	   583 4236 4237   585   513   580   647        0
	   584 4243 4242   586   514   582   648        0
	   585 4256 4257   588   515   583   649        0
	   586 4263 4262   587   516   584   650        0
	   587 4263 4283   590   517   586   651        0
	   588 4276 4277   589   518   585   653        0
	   589 4276 4296   588   519   592   654        0
	   590 4284 4283   591   520   587   656        0
	   591 4284 4304   594   521   590   657        0
	   592 4295 4296   593   522   589   658        0
	   593 4295 4315   592   523   596   659        0
	   594 4305 4304   595   524   591   660        0
	   595 4305 4325   598   525   594   661        0
	   596 4314 4315   597   526   593   662        0
	   597 4314 4334   596   527   604   663        0
	   598 4326 4325   599   528   595   664        0
	   599 4326 4346   600   529   598   665        0
	   600 4327 4347   601   530   599   667        0
	   601 4328 4348   606   531   600   668        0
	   602 4331 4351   603   532   609   671        0
	   603 4332 4352   605   533   602   672        0
	   604 4333 4334   605   534   597   673        0
	   605 4333 4353   604   535   603   674        0
	   606 4349 4348   607   536   601   608        0
	   607 4349 4369   610   537   606   608        0
	   608 4349 4749   607   606   669   611        0
	   609 4350 4351   610   538   602   611        0
	   610 4350 4370   609   539   607   611        0
	   611 4350 4750   610   608   670   609        0
	   612 4466 4446   613   542   620   622        0
	   613 4467 4447   614   543   612   676        0
	   614 4468 4448   615   545   613   677        0
	   615 4469 4449   616   546   614   678        0
	   616 4470 4450   617   548   615   679        0
	   617 4471 4451   618   549   616   680        0
	   618 4472 4452   619   550   617   681        0
	   619 4473 4453   623   551   618   624        0
	   620 4466 4465   621   552   612   622        0
	   621 4485 4465   620   553   626   682        0
	   622 4466 4866   684   620   612   683        0
	   623 4473 4474   625   554   619   624        0
	   624 4473 4873   688   686   619   623        0
	   625 4494 4474   628   555   623   689        0
	   626 4485 4484   627   556   621   690        0
	   627 4504 4484   626   557   630   691        0
	   628 4494 4495   629   558   625   693        0
	   629 4515 4495   632   559   628   695        0
	   630 4504 4503   631   560   627   696        0
	   631 4523 4503   630   561   634   635        0
	   632 4515 4516   633   562   629   698        0
	   633 4536 4516   636   563   632   637        0
	   634 4523 4522   638   564   631   635        0
	   635 4523 4923   701   634   631   700        0
	   636 4536 4537   639   565   633   637        0
	   637 4536 4936   703   702   633   636        0
	   638 4543 4542   640   566   634   704        0
	   639 4556 4557   641   567   636   706        0
	   640 4563 4562   642   568   638   708        0
	   641 4576 4577   643   570   639   709        0
	   642 4583 4582   644   573   640   710        0
	   643 4596 4597   645   575   641   711        0
	   644 4603 4602   646   578   642   712        0
	   645 4616 4617   647   581   643   713        0
	   646 4623 4622   648   582   644   714        0
	   647 4636 4637   649   583   645   715        0
	   648 4643 4642   650   584   646   716        0
	   649 4656 4657   653   585   647   719        0
	   650 4663 4662   651   586   648   652        0
	   651 4663 4683   656   587   650   652        0
	   652 4663 5063   651   650   717   722        0
	   653 4676 4677   654   588   649   655        0
	   654 4676 4696   653   589   658   655        0
	   655 4676 5076   654   723   720   653        0
	   656 4684 4683   657   590   651   724        0
	   657 4684 4704   660   591   656   725        0
	   658 4695 4696   659   592   654   727        0
	   659 4695 4715   658   593   662   728        0
	   660 4705 4704   661   594   657   730        0
	   661 4705 4725   664   595   660   731        0
	   662 4714 4715   663   596   659   735        0
	   663 4714 4734   662   597   673   736        0
	   664 4726 4725   665   598   661   666        0
	   665 4726 4746   667   599   664   666        0
	   666 4726 5126   665   664   733   738        0
	   667 4727 4747   668   600   665   739        0
	   668 4728 4748   669   601   667   741        0
	   669 4729 4749   670   608   668   742        0
	   670 4730 4750   671   611   669   743        0
	   671 4731 4751   672   602   670   744        0
	   672 4732 4752   674   603   671   746        0
	   673 4733 4734   674   604   663   675        0
	   674 4733 4753   673   605   672   675        0
	   675 4733 5133   674   745   734   673        0
	   676 4867 4847   677   613   683   685        0
	   677 4868 4848   678   614   676   748        0
	   678 4869 4849   679   615   677   749        0
	   679 4870 4850   680   616   678   750        0
	   680 4871 4851   681   617   679   751        0
	   681 4872 4852   686   618   680   687        0
	   682 4885 4865   684   621   690   692        0
	   683 4867 4866   684   622   676   685        0
	   684 4886 4866   683   622   682   752        0
	   685 4867 5267   754   683   676   753        0
	   686 4872 4873   688   624   681   687        0
	   687 4872 5272   760   758   681   686        0
	   688 4893 4873   689   624   686   761        0
	   689 4894 4874   693   625   688   694        0
	   690 4885 4884   691   626   682   692        0
	   691 4904 4884   690   627   696   697        0
	   692 4885 5285   763   690   682   762        0
	   693 4894 4895   695   628   689   694        0
	   694 4894 5294   767   765   689   693        0
	   695 4915 4895   698   629   693   699        0
	   696 4904 4903   700   630   691   697        0
	   697 4904 5304   769   696   691   768        0
	   698 4915 4916   702   632   695   699        0
	   699 4915 5315   773   771   695   698        0
	   700 4924 4923   701   635   696   774        0
	   701 4943 4923   700   635   704   705        0
	   702 4935 4936   703   637   698   776        0
	   703 4956 4936   706   637   702   707        0
	   704 4943 4942   708   638   701   705        0
	   705 4943 5343   779   704   701   778        0
	   706 4956 4957   709   639   703   707        0
	   707 4956 5356   781   780   703   706        0
	   708 4963 4962   710   640   704   782        0
	   709 4976 4977   711   641   706   784        0
	   710 4983 4982   712   642   708   786        0
	   711 4996 4997   713   643   709   788        0
	   712 5003 5002   714   644   710   790        0
	   713 5016 5017   715   645   711   792        0
	   714 5023 5022   716   646   712   794        0
	   715 5036 5037   719   647   713   797        0
	   716 5043 5042   717   648   714   718        0
	   717 5043 5063   722   652   716   718        0
	   718 5043 5443   717   716   795   800        0
	   719 5056 5057   720   649   715   721        0
	   720 5056 5076   719   655   723   721        0
	   721 5056 5456   720   801   798   719        0
	   722 5064 5063   724   652   717   802        0
	   723 5075 5076   727   655   720   805        0
	   724 5084 5083   725   656   722   726        0
	   725 5084 5104   730   657   724   726        0
	   726 5084 5484   725   724   803   808        0
	   727 5095 5096   728   658   723   729        0
	   728 5095 5115   727   659   735   729        0
	   729 5095 5495   728   811   806   727        0
	   730 5105 5104   731   660   725   732        0
	   731 5105 5125   733   661   730   732        0
	   732 5105 5505   731   730   809   814        0
	   733 5106 5126   738   666   731   815        0
	   734 5113 5133   736   675   745   820        0
	   735 5114 5115   736   662   728   737        0
	   736 5114 5134   735   663   734   737        0
	   737 5114 5514   736   819   812   735        0
	   738 5127 5126   739   666   733   740        0
	   739 5127 5147   741   667   738   740        0
	   740 5127 5527   739   738   817   822        0
	   741 5128 5148   742   668   739   823        0
	   742 5129 5149   743   669   741   825        0
	   743 5130 5150   744   670   742   827        0
	   744 5131 5151   746   671   743   830        0
	   745 5132 5133   746   675   734   747        0
	   746 5132 5152   745   672   744   747        0
	   747 5132 5532   746   829   818   745        0
	   748 5268 5248   749   677   753   755        0
	   749 5269 5249   750   678   748   756        0
	   750 5270 5250   751   679   749   757        0
	   751 5271 5251   758   680   750   759        0
	   752 5286 5266   754   684   762   764        0
	   753 5268 5267   754   685   748   755        0
	   754 5287 5267   753   685   752   832        0
	   755 5268 5668   833   753   748   756        0
	   756 5269 5669   834   755   749   757        0
	   757 5270 5670   835   756   750   759        0
	   758 5271 5272   760   687   751   759        0
	   759 5271 5671   836   757   751   758        0
	   760 5292 5272   761   687   758   837        0
	   761 5293 5273   765   688   760   766        0
	   762 5286 5285   763   692   752   764        0
	   763 5305 5285   762   692   768   770        0
	   764 5286 5686   839   762   752   838        0
	   765 5293 5294   767   694   761   766        0
	   766 5293 5693   847   845   761   765        0
	   767 5314 5294   771   694   765   772        0
	   768 5305 5304   769   697   763   770        0
	   769 5324 5304   768   697   774   775        0
	   770 5305 5705   849   768   763   848        0
	   771 5314 5315   773   699   767   772        0
	   772 5314 5714   853   851   767   771        0
	   773 5335 5315   776   699   771   777        0
	   774 5324 5323   778   700   769   775        0
	   775 5324 5724   855   774   769   854        0
	   776 5335 5336   780   702   773   777        0
	   777 5335 5735   859   857   773   776        0
	   778 5344 5343   779   705   774   860        0
	   779 5363 5343   778   705   782   783        0
	   780 5355 5356   781   707   776   862        0
	   781 5376 5356   784   707   780   785        0
	   782 5363 5362   786   708   779   783        0
	   783 5363 5763   787   782   779   864        0
	   784 5376 5377   788   709   781   785        0
	   785 5376 5776   789   866   781   784        0
	   786 5383 5382   790   710   782   787        0
	   787 5383 5783   791   786   783   868        0
	   788 5396 5397   792   711   784   789        0
	   789 5396 5796   793   870   785   788        0
	   790 5403 5402   794   712   786   791        0
	   791 5403 5803   796   790   787   872        0
	   792 5416 5417   797   713   788   793        0
	   793 5416 5816   799   874   789   792        0
	   794 5423 5422   795   714   790   796        0
	   795 5423 5443   800   718   794   796        0
	   796 5423 5823   795   794   791   876        0
	   797 5436 5437   798   715   792   799        0
	   798 5436 5456   797   721   801   799        0
	   799 5436 5836   798   878   793   797        0
	   800 5444 5443   802   718   795   880        0
	   801 5455 5456   805   721   798   883        0
	   802 5464 5463   803   722   800   804        0
	   803 5464 5484   808   726   802   804        0
	   804 5464 5864   803   802   881   886        0
	   805 5475 5476   806   723   801   807        0
	   806 5475 5495   805   729   811   807        0
	   807 5475 5875   806   889   884   805        0
	   808 5485 5484   809   726   803   810        0
	   809 5485 5505   814   732   808   810        0
	   810 5485 5885   809   808   887   892        0
	   811 5494 5495   812   729   806   813        0
	   812 5494 5514   811   737   819   813        0
	   813 5494 5894   812   895   890   811        0
	   814 5506 5505   815   732   809   816        0
	   815 5506 5526   817   733   814   816        0
	   816 5506 5906   815   814   893   898        0
	   817 5507 5527   822   740   815   899        0
	   818 5512 5532   820   747   829   910        0
	   819 5513 5514   820   737   812   821        0
	   820 5513 5533   819   734   818   821        0
	   821 5513 5913   820   909   896   819        0
	   822 5528 5527   823   740   817   824        0
	   823 5528 5548   825   741   822   824        0
	   824 5528 5928   823   822   901   826        0
	   825 5529 5549   827   742   823   826        0
	   826 5529 5929   825   824   903   828        0
	   827 5530 5550   830   743   825   828        0
	   828 5530 5930   827   826   905   831        0
	   829 5531 5532   830   747   818   831        0
	   830 5531 5551   829   744   827   831        0
	   831 5531 5931   830   828   907   829        0
	   832 5687 5667   833   754   838   840        0
	   833 5688 5668   834   755   832   841        0
	   834 5689 5669   835   756   833   842        0
	   835 5690 5670   836   757   834   843        0
	   836 5691 5671   837   759   835   844        0
	   837 5692 5672   845   760   836   846        0
	   838 5687 5686   839   764   832   840        0
	   839 5706 5686   838   764   848   850        0
	   840 5687 6087   912   838   832   841        0
	   841 5688 6088   913   840   833   842        0
	   842 5689 6089   914   841   834   843        0
	   843 5690 6090   915   842   835   844        0
	   844 5691 6091   916   843   836   846        0
	   845 5692 5693   847   766   837   846        0
	   846 5692 6092   917   844   837   845        0
	   847 5713 5693   851   766   845   852        0
	   848 5706 5705   849   770   839   850        0
	   849 5725 5705   848   770   854   856        0
	   850 5706 6106   919   848   839   918        0
	   851 5713 5714   853   772   847   852        0
	   852 5713 6113   927   925   847   851        0
	   853 5734 5714   857   772   851   858        0
	   854 5725 5724   855   775   849   856        0
	   855 5744 5724   854   775   860   861        0
	   856 5725 6125   929   854   849   928        0
	   857 5734 5735   859   777   853   858        0
	   858 5734 6134   935   933   853   857        0
	   859 5755 5735   862   777   857   863        0
	   860 5744 5743   864   778   855   861        0
	   861 5744 6144   865   860   855   936        0
	   862 5755 5756   866   780   859   863        0
	   863 5755 6155   867   940   859   862        0
	   864 5764 5763   868   783   860   865        0
	   865 5764 6164   869   864   861   942        0
	   866 5775 5776   870   785   862   867        0
	   867 5775 6175   871   944   863   866        0
	   868 5784 5783   872   787   864   869        0
	   869 5784 6184   873   868   865   946        0
	   870 5795 5796   874   789   866   871        0
	   871 5795 6195   875   948   867   870        0
	   872 5804 5803   876   791   868   873        0
	   873 5804 6204   877   872   869   950        0
	   874 5815 5816   878   793   870   875        0
	   875 5815 6215   879   952   871   874        0
	   876 5824 5823   880   796   872   877        0
	   877 5824 6224   882   876   873   954        0
	   878 5835 5836   883   799   874   879        0
	   879 5835 6235   885   956   875   878        0
	   880 5844 5843   881   800   876   882        0
	   881 5844 5864   886   804   880   882        0
	   882 5844 6244   881   880   877   958        0
	   883 5855 5856   884   801   878   885        0
	   884 5855 5875   883   807   889   885        0
	   885 5855 6255   884   963   879   883        0
	   886 5865 5864   887   804   881   888        0
	   887 5865 5885   892   810   886   888        0
	   888 5865 6265   887   886   959   966        0
	   889 5874 5875   890   807   884   891        0
	   890 5874 5894   889   813   895   891        0
	   891 5874 6274   890   971   964   889        0
	   892 5886 5885   893   810   887   894        0
	   893 5886 5906   898   816   892   894        0
	   894 5886 6286   893   892   967   974        0
	   895 5893 5894   896   813   890   897        0
	   896 5893 5913   895   821   909   897        0
	   897 5893 6293   896   985   972   895        0
	   898 5907 5906   899   816   893   900        0
	   899 5907 5927   901   817   898   900        0
	   900 5907 6307   899   898   975   902        0
	   901 5908 5928   903   824   899   902        0
	   902 5908 6308   901   900   977   904        0
	   903 5909 5929   905   826   901   904        0
	   904 5909 6309   903   902   979   906        0
	   905 5910 5930   907   828   903   906        0
	   906 5910 6310   905   904   981   908        0
	   907 5911 5931   910   831   905   908        0
	   908 5911 6311   907   906   983   911        0
	   909 5912 5913   910   821   896   911        0
	   910 5912 5932   909   818   907   911        0
	   911 5912 6312   910   908   986   909        0
	   912 6107 6087   913   840   918   920        0
	   913 6108 6088   914   841   912   921        0
	   914 6109 6089   915   842   913   922        0
	   915 6110 6090   916   843   914   923        0
	   916 6111 6091   917   844   915   924        0
	   917 6112 6092   925   846   916   926        0
	   918 6107 6106   919   850   912   920        0
	   919 6126 6106   918   850   928   930        0
	   920 6107 6507   931   918   912   921        0
	   921 6108 6508   988   920   913   922        0
	   922 6109 6509   989   921   914   923        0
	   923 6110 6510   990   922   915   924        0
	   924 6111 6511   991   923   916   926        0
	   925 6112 6113   927   852   917   926        0
	   926 6112 6512   932   924   917   925        0
	   927 6133 6113   933   852   925   934        0
	   928 6126 6125   929   856   919   930        0
	   929 6145 6125   928   856   936   937        0
	   930 6126 6526   938   928   919   931        0
	   931 6127 6527   993   930   920   992        0
	   932 6132 6532   999   997   926   934        0
	   933 6133 6134   935   858   927   934        0
	   934 6133 6533   939   932   927   933        0
	   935 6154 6134   940   858   933   941        0
	   936 6145 6144   942   861   929   937        0
	   937 6145 6545   943   936   929   938        0
	   938 6146 6546  1001   937   930  1000        0
	   939 6153 6553  1009  1007   934   941        0
	   940 6154 6155   944   863   935   941        0
	   941 6154 6554   945   939   935   940        0
	   942 6165 6164   946   865   936   943        0
	   943 6165 6565   947   942   937  1010        0
	   944 6174 6175   948   867   940   945        0
	   945 6174 6574   949  1018   941   944        0
	   946 6185 6184   950   869   942   947        0
	   947 6185 6585   951   946   943  1020        0
	   948 6194 6195   952   871   944   949        0
	   949 6194 6594   953  1026   945   948        0
	   950 6205 6204   954   873   946   951        0
	   951 6205 6605   955   950   947  1028        0
	   952 6214 6215   956   875   948   953        0
	   953 6214 6614   957  1034   949   952        0
	   954 6225 6224   958   877   950   955        0
	   955 6225 6625   960   954   951  1036        0
	   956 6234 6235   963   879   952   957        0
	   957 6234 6634   965  1045   953   956        0
	   958 6245 6244   959   882   954   960        0
	   959 6245 6265   966   888   958   960        0
	   960 6245 6645   959   958   955   961        0
	   961 6246 6646   968   960  1037  1048        0
	   962 6253 6653   973  1055  1046   965        0
	   963 6254 6255   964   885   956   965        0
	   964 6254 6274   963   891   971   965        0
	   965 6254 6654   964   962   957   963        0
	   966 6266 6265   967   888   959   968        0
	   967 6266 6286   974   894   966   968        0
	   968 6266 6666   967   966   961   969        0
	   969 6267 6667   976   968  1049  1058        0
	   970 6272 6672   987  1065  1056   973        0
	   971 6273 6274   972   891   964   973        0
	   972 6273 6293   971   897   985   973        0
	   973 6273 6673   972   970   962   971        0
	   974 6287 6286   975   894   967   976        0
	   975 6287 6307   977   900   974   976        0
	   976 6287 6687   975   974   969   978        0
	   977 6288 6308   979   902   975   978        0
	   978 6288 6688   977   976  1059   980        0
	   979 6289 6309   981   904   977   980        0
	   980 6289 6689   979   978  1061   982        0
	   981 6290 6310   983   906   979   982        0
	   982 6290 6690   981   980  1063   984        0
	   983 6291 6311   986   908   981   984        0
	   984 6291 6691   983   982  1066   987        0
	   985 6292 6293   986   897   972   987        0
	   986 6292 6312   985   911   983   987        0
	   987 6292 6692   986   984   970   985        0
	   988 6528 6508   989   921   992   994        0
	   989 6529 6509   990   922   988   995        0
	   990 6530 6510   991   923   989   996        0
	   991 6531 6511   997   924   990   998        0
	   992 6528 6527   993   931   988   994        0
	   993 6547 6527   992   931  1000  1002        0
	   994 6528 6928  1003   992   988   995        0
	   995 6529 6929  1004   994   989   996        0
	   996 6530 6930  1005   995   990   998        0
	   997 6531 6532   999   932   991   998        0
	   998 6531 6931  1006   996   991   997        0
	   999 6552 6532  1007   932   997  1008        0
	  1000 6547 6546  1001   938   993  1002        0
	  1001 6566 6546  1000   938  1010  1011        0
	  1002 6547 6947  1012  1000   993  1003        0
	  1003 6548 6948  1013  1002   994  1004        0
	  1004 6549 6949  1014  1003   995  1005        0
	  1005 6550 6950  1015  1004   996  1006        0
	  1006 6551 6951  1016  1005   998  1008        0
	  1007 6552 6553  1009   939   999  1008        0
	  1008 6552 6952  1017  1006   999  1007        0
	  1009 6573 6553  1018   939  1007  1019        0
	  1010 6566 6565  1020   943  1001  1011        0
	  1011 6566 6966  1021  1010  1001  1012        0
	  1012 6567 6967  1022  1011  1002  1013        0
	  1013 6568 6968  1023  1012  1003  1014        0
	  1014 6569 6969  1068  1013  1004  1015        0
	  1015 6570 6970  1069  1014  1005  1016        0
	  1016 6571 6971  1024  1015  1006  1017        0
	  1017 6572 6972  1025  1016  1008  1019        0
	  1018 6573 6574  1026   945  1009  1019        0
	  1019 6573 6973  1027  1017  1009  1018        0
	  1020 6586 6585  1028   947  1010  1021        0
	  1021 6586 6986  1029  1020  1011  1022        0
	  1022 6587 6987  1030  1021  1012  1023        0
	  1023 6588 6988  1031  1022  1013  1070        0
	  1024 6591 6991  1032  1072  1016  1025        0
	  1025 6592 6992  1033  1024  1017  1027        0
	  1026 6593 6594  1034   949  1018  1027        0
	  1027 6593 6993  1035  1025  1019  1026        0
	  1028 6606 6605  1036   951  1020  1029        0
	  1029 6606 7006  1038  1028  1021  1030        0
	  1030 6607 7007  1039  1029  1022  1031        0
	  1031 6608 7008  1040  1030  1023  1074        0
	  1032 6611 7011  1043  1077  1024  1033        0
	  1033 6612 7012  1044  1032  1025  1035        0
	  1034 6613 6614  1045   953  1026  1035        0
	  1035 6613 7013  1047  1033  1027  1034        0
	  1036 6626 6625  1037   955  1028  1038        0
	  1037 6626 6646  1048   961  1036  1038        0
	  1038 6626 7026  1037  1036  1029  1039        0
	  1039 6627 7027  1050  1038  1030  1040        0
	  1040 6628 7028  1051  1039  1031  1041        0
	  1041 6629 7029  1052  1040  1075  1042        0
	  1042 6630 7030  1053  1041  1078  1043        0
	  1043 6631 7031  1054  1042  1032  1044        0
	  1044 6632 7032  1057  1043  1033  1047        0
	  1045 6633 6634  1046   957  1034  1047        0
	  1046 6633 6653  1045   962  1055  1047        0
	  1047 6633 7033  1046  1044  1035  1045        0
	  1048 6647 6646  1049   961  1037  1050        0
	  1049 6647 6667  1058   969  1048  1050        0
	  1050 6647 7047  1049  1048  1039  1051        0
	  1051 6648 7048  1060  1050  1040  1052        0
	  1052 6649 7049  1062  1051  1041  1053        0
	  1053 6650 7050  1064  1052  1042  1054        0
	  1054 6651 7051  1067  1053  1043  1057        0
	  1055 6652 6653  1056   962  1046  1057        0
	  1056 6652 6672  1055   970  1065  1057        0
	  1057 6652 7052  1056  1054  1044  1055        0
	  1058 6668 6667  1059   969  1049  1060        0
	  1059 6668 6688  1061   978  1058  1060        0
	  1060 6668 7068  1059  1058  1051  1062        0
	  1061 6669 6689  1063   980  1059  1062        0
	  1062 6669 7069  1061  1060  1052  1064        0
	  1063 6670 6690  1066   982  1061  1064        0
	  1064 6670 7070  1063  1062  1053  1067        0
	  1065 6671 6672  1066   970  1056  1067        0
	  1066 6671 6691  1065   984  1063  1067        0
	  1067 6671 7071  1066  1064  1054  1065        0
	  1068 6989 6969  1069  1014  1070  1071        0
	  1069 6990 6970  1072  1015  1068  1073        0
	  1070 6989 6988  1074  1023  1068  1071        0
	  1071 6989 7389  1076  1070  1068  1073        0
	  1072 6990 6991  1077  1024  1069  1073        0
	  1073 6990 7390  1079  1071  1069  1072        0
	  1074 7009 7008  1075  1031  1070  1076        0
	  1075 7009 7029  1078  1041  1074  1076        0
	  1076 7009 7409  1075  1074  1071  1079        0
	  1077 7010 7011  1078  1032  1072  1079        0
	  1078 7010 7030  1077  1042  1075  1079        0
	  1079 7010 7410  1078  1076  1073  1077        0
	}
}
