Version 1.2
CartesianMesh {
	//              X          Y          Z
	Size           64        128          1
	Extent 1.5999999999999999e-05 3.2199999999999997e-05          1
	Origin          0          0          0

	VolumeRegionsMapSubvolume {
	3
	//VolRegID   SubvolID     Volume
	         0          0 4.8970078740161877e-10 //chromosome
	         1          2 1.2749606299212626e-11 //void
	         2          2 1.2749606299212626e-11 //void
	}

	MembraneRegionsMapVolumeRegion {
	2
	//MemRegID    VolReg1    VolReg2    Surface
	         0          1          0 1.0971793832678612e-05
	         1          2          0 1.0971793832678612e-05
	}

	VolumeElementsMapVolumeRegion {
	8192 Compressed
	789CEDCD310D000008C030C0BF68247070909076021601000000000000F0438E6DD498BFBFBFBFFF
	CD1F000000000000E08B06A1640265
	}

	MembraneElements {
	92
	//Indx Vol1 Vol2 Conn0 Conn1 Conn2 Conn3 MemRegID
	     0 3712 3648     1    -1    -1    -1        0
	     1 3713 3649     2     0    -1    -1        0
	     2 3714 3650     3     1    -1    -1        0
	     3 3715 3651     4     2    -1    -1        0
	     4 3716 3652     5     3    -1    -1        0
	     5 3717 3653     6     4    -1    -1        0
	     6 3718 3654     7     5    -1    -1        0
	     7 3719 3655     8     6    -1    -1        0
	     8 3720 3656     9     7    -1    -1        0
	     9 3721 3657    10     8    -1    -1        0
	    10 3722 3658    11     9    -1    -1        0
	    11 3723 3659    12    10    -1    -1        0
	    12 3724 3660    13    11    -1    -1        0
	    13 3725 3661    14    12    -1    -1        0
	    14 3726 3662    15    13    -1    -1        0
	    15 3727 3663    16    14    -1    -1        0
	    16 3728 3664    17    15    -1    -1        0
	    17 3728 3729    18    16    -1    -1        0
	    18 3792 3793    19    17    -1    -1        0
	    19 3856 3857    20    18    -1    -1        0
	    20 3920 3921    21    19    -1    -1        0
	    21 3984 3985    22    20    -1    -1        0
	    22 4048 4049    23    21    -1    -1        0
	    23 4112 4113    24    22    -1    -1        0
	    24 4176 4177    25    23    -1    -1        0
	    25 4240 4241    26    24    -1    -1        0
	    26 4304 4305    27    25    -1    -1        0
	    27 4368 4369    44    26    -1    -1        0
	    28 4416 4480    29    -1    -1    -1        0
	    29 4417 4481    30    28    -1    -1        0
	    30 4418 4482    31    29    -1    -1        0
	    31 4419 4483    32    30    -1    -1        0
	    32 4420 4484    33    31    -1    -1        0
	    33 4421 4485    34    32    -1    -1        0
	    34 4422 4486    35    33    -1    -1        0
	    35 4423 4487    36    34    -1    -1        0
	    36 4424 4488    37    35    -1    -1        0
	    37 4425 4489    38    36    -1    -1        0
	    38 4426 4490    39    37    -1    -1        0
	    39 4427 4491    40    38    -1    -1        0
	    40 4428 4492    41    39    -1    -1        0
	    41 4429 4493    42    40    -1    -1        0
	    42 4430 4494    43    41    -1    -1        0
	    43 4431 4495    45    42    -1    -1        0
	    44 4432 4433    45    27    -1    -1        0
	    45 4432 4496    44    43    -1    -1        0
	    46 3759 3695    47    63    -1    -1        1
	    47 3760 3696    48    46    -1    -1        1
	    48 3761 3697    49    47    -1    -1        1
	    49 3762 3698    50    48    -1    -1        1
	    50 3763 3699    51    49    -1    -1        1
	    51 3764 3700    52    50    -1    -1        1
	    52 3765 3701    53    51    -1    -1        1
	    53 3766 3702    54    52    -1    -1        1
	    54 3767 3703    55    53    -1    -1        1
	    55 3768 3704    56    54    -1    -1        1
	    56 3769 3705    57    55    -1    -1        1
	    57 3770 3706    58    56    -1    -1        1
	    58 3771 3707    59    57    -1    -1        1
	    59 3772 3708    60    58    -1    -1        1
	    60 3773 3709    61    59    -1    -1        1
	    61 3774 3710    62    60    -1    -1        1
	    62 3775 3711    -1    61    -1    -1        1
	    63 3759 3758    64    46    -1    -1        1
	    64 3823 3822    65    63    -1    -1        1
	    65 3887 3886    66    64    -1    -1        1
	    66 3951 3950    67    65    -1    -1        1
	    67 4015 4014    68    66    -1    -1        1
	    68 4079 4078    69    67    -1    -1        1
	    69 4143 4142    70    68    -1    -1        1
	    70 4207 4206    71    69    -1    -1        1
	    71 4271 4270    72    70    -1    -1        1
	    72 4335 4334    73    71    -1    -1        1
	    73 4399 4398    74    72    -1    -1        1
	    74 4463 4462    75    73    -1    -1        1
	    75 4463 4527    76    74    -1    -1        1
	    76 4464 4528    77    75    -1    -1        1
	    77 4465 4529    78    76    -1    -1        1
	    78 4466 4530    79    77    -1    -1        1
	    79 4467 4531    80    78    -1    -1        1
	    80 4468 4532    81    79    -1    -1        1
	    81 4469 4533    82    80    -1    -1        1
	    82 4470 4534    83    81    -1    -1        1
	    83 4471 4535    84    82    -1    -1        1
	    84 4472 4536    85    83    -1    -1        1
	    85 4473 4537    86    84    -1    -1        1
	    86 4474 4538    87    85    -1    -1        1
	    87 4475 4539    88    86    -1    -1        1
	    88 4476 4540    89    87    -1    -1        1
	    89 4477 4541    90    88    -1    -1        1
	    90 4478 4542    91    89    -1    -1        1
	    91 4479 4543    -1    90    -1    -1        1
	}
}
