Version 1.2
CartesianMesh {
	//              X          Y          Z
	Size           52        144          1
	Extent        1.3 3.6000000000000001          1
	Origin          0          0          0

	VolumeRegionsMapSubvolume {
	3
	//VolRegID   SubvolID     Volume
	         0          0 4.5028877005346635 //chromosome
	         1          2 0.088556149732620229 //void
	         2          2 0.088556149732620229 //void
	}

	MembraneRegionsMapVolumeRegion {
	2
	//MemRegID    VolReg1    VolReg2    Surface
	         0          1          0 0.84328238657560828
	         1          2          0 0.84328238657560817
	}

	VolumeElementsMapVolumeRegion {
	7488 Compressed
	789CEDCDB1110000040031EC3FB409340AA7487E808F00000000000080BF7268AB867C7C7C7CAE3F
	000000000000F05903848F01B1
	}

	MembraneElements {
	72
	//Indx Vol1 Vol2 Conn0 Conn1 Conn2 Conn3 MemRegID
	     0 3432 3380     1    -1    -1    -1        0
	     1 3433 3381     2     0    -1    -1        0
	     2 3434 3382     3     1    -1    -1        0
	     3 3435 3383     4     2    -1    -1        0
	     4 3436 3384     5     3    -1    -1        0
	     5 3437 3385     6     4    -1    -1        0
	     6 3438 3386     7     5    -1    -1        0
	     7 3439 3387     8     6    -1    -1        0
	     8 3440 3388     9     7    -1    -1        0
	     9 3441 3389    10     8    -1    -1        0
	    10 3442 3390    11     9    -1    -1        0
	    11 3443 3391    12    10    -1    -1        0
	    12 3443 3444    13    11    -1    -1        0
	    13 3495 3496    14    12    -1    -1        0
	    14 3547 3548    15    13    -1    -1        0
	    15 3599 3600    16    14    -1    -1        0
	    16 3651 3652    17    15    -1    -1        0
	    17 3703 3704    18    16    -1    -1        0
	    18 3755 3756    19    17    -1    -1        0
	    19 3807 3808    20    18    -1    -1        0
	    20 3859 3860    21    19    -1    -1        0
	    21 3911 3912    22    20    -1    -1        0
	    22 3963 3964    34    21    -1    -1        0
	    23 4004 4056    24    -1    -1    -1        0
	    24 4005 4057    25    23    -1    -1        0
	    25 4006 4058    26    24    -1    -1        0
	    26 4007 4059    27    25    -1    -1        0
	    27 4008 4060    28    26    -1    -1        0
	    28 4009 4061    29    27    -1    -1        0
	    29 4010 4062    30    28    -1    -1        0
	    30 4011 4063    31    29    -1    -1        0
	    31 4012 4064    32    30    -1    -1        0
	    32 4013 4065    33    31    -1    -1        0
	    33 4014 4066    35    32    -1    -1        0
	    34 4015 4016    35    22    -1    -1        0
	    35 4015 4067    34    33    -1    -1        0
	    36 3472 3420    37    48    -1    -1        1
	    37 3473 3421    38    36    -1    -1        1
	    38 3474 3422    39    37    -1    -1        1
	    39 3475 3423    40    38    -1    -1        1
	    40 3476 3424    41    39    -1    -1        1
	    41 3477 3425    42    40    -1    -1        1
	    42 3478 3426    43    41    -1    -1        1
	    43 3479 3427    44    42    -1    -1        1
	    44 3480 3428    45    43    -1    -1        1
	    45 3481 3429    46    44    -1    -1        1
	    46 3482 3430    47    45    -1    -1        1
	    47 3483 3431    -1    46    -1    -1        1
	    48 3472 3471    49    36    -1    -1        1
	    49 3524 3523    50    48    -1    -1        1
	    50 3576 3575    51    49    -1    -1        1
	    51 3628 3627    52    50    -1    -1        1
	    52 3680 3679    53    51    -1    -1        1
	    53 3732 3731    54    52    -1    -1        1
	    54 3784 3783    55    53    -1    -1        1
	    55 3836 3835    56    54    -1    -1        1
	    56 3888 3887    57    55    -1    -1        1
	    57 3940 3939    58    56    -1    -1        1
	    58 3992 3991    59    57    -1    -1        1
	    59 4044 4043    60    58    -1    -1        1
	    60 4044 4096    61    59    -1    -1        1
	    61 4045 4097    62    60    -1    -1        1
	    62 4046 4098    63    61    -1    -1        1
	    63 4047 4099    64    62    -1    -1        1
	    64 4048 4100    65    63    -1    -1        1
	    65 4049 4101    66    64    -1    -1        1
	    66 4050 4102    67    65    -1    -1        1
	    67 4051 4103    68    66    -1    -1        1
	    68 4052 4104    69    67    -1    -1        1
	    69 4053 4105    70    68    -1    -1        1
	    70 4054 4106    71    69    -1    -1        1
	    71 4055 4107    -1    70    -1    -1        1
	}
}
